<svg
      width="57"
      height="57"
      viewBox="0 0 57 57"
      fill="none"
      xmlns="http://www.w3.org/2000/svg"
    >
      <rect width="57" height="57" rx="10" fill="#1A1B41" />
      <path
        d="M28 29.5837V12.167L40.6667 18.5003L28 24.8337"
        stroke="#F5F6FA"
        stroke-width="2"
        stroke-linecap="round"
        stroke-linejoin="round"
      />
      <path
        d="M41.5373 25.1981C42.3799 27.795 42.4587 30.5793 41.7645 33.2197C41.0702 35.8601 39.632 38.2454 37.621 40.092C35.6101 41.9386 33.111 43.1686 30.4211 43.6357C27.7312 44.1029 24.9637 43.7875 22.448 42.727C19.9322 41.6666 17.774 39.9057 16.2301 37.654C14.6862 35.4023 13.8217 32.7545 13.7394 30.0256C13.6571 27.2967 14.3604 24.6015 15.7657 22.2608C17.171 19.9201 19.2192 18.0324 21.6665 16.8223"
        stroke="#F5F6FA"
        stroke-width="2"
        stroke-linecap="round"
        stroke-linejoin="round"
      />
      <path
        d="M21.6667 24.834C20.8733 25.8901 20.3568 27.128 20.1642 28.4348C19.9716 29.7416 20.1091 31.0758 20.5641 32.3159C21.0191 33.556 21.7771 34.6626 22.7692 35.5347C23.7613 36.4069 24.9558 37.017 26.244 37.3093C27.5322 37.6017 28.873 37.5671 30.1444 37.2087C31.4158 36.8502 32.5773 36.1794 33.523 35.2572C34.4688 34.335 35.1688 33.1909 35.5592 31.9289C35.9496 30.667 36.0181 29.3275 35.7584 28.0323"
        stroke="#F5F6FA"
        stroke-width="2"
        stroke-linecap="round"
        stroke-linejoin="round"
      />
    </svg>